<svg width="700" height="604" viewBox="0 0 700 604" fill="none" xmlns="http://www.w3.org/2000/svg">
<path d="M684.65 259.607C674.386 234.449 659.037 211.77 638.546 191.643C618.448 171.902 595.657 157.101 570.23 147.222C553.983 140.905 537.475 136.644 520.648 134.385C511.132 133.063 501.578 132.439 491.913 132.439C465.121 132.421 438.984 137.36 413.557 147.222C388.131 157.101 365.377 171.921 345.279 191.68L238.842 296.225C230.56 304.36 220.502 308.602 208.686 308.987C196.87 309.373 186.811 305.517 178.529 297.4C170.265 289.265 166.339 279.367 166.713 267.743C167.106 256.137 171.443 246.275 179.725 238.14L420.961 1.17529L185.633 0L61.4727 121.953C40.9818 142.098 25.6137 164.741 15.3682 189.917C5.10408 215.075 -0.0186451 240.821 5.09893e-05 267.155C-0.0186451 293.47 5.10408 319.234 15.3682 344.393C25.595 369.551 40.9818 392.23 61.4727 412.357C81.571 432.098 104.362 446.899 129.788 456.778C145.998 463.095 162.506 467.356 179.37 469.615C188.868 470.937 198.44 471.561 208.106 471.561C234.898 471.579 261.035 466.64 286.424 456.778C311.869 446.899 334.604 432.079 354.702 412.32L382.466 385.05L325.031 328.637L443.901 297.326L562.789 266.053L530.95 382.828L499.073 499.584L441.601 443.134L279.039 602.825L514.366 604L638.527 482.047C659.018 461.902 674.386 439.259 684.632 414.083C694.896 388.924 700.019 363.179 700 336.845C700.037 310.53 694.914 284.766 684.65 259.607Z" fill="black" style="fill:black;fill-opacity:1;"/>
</svg>
